<?xml version="1.0" standalone="no"?>
<!DOCTYPE svg PUBLIC "-//W3C//DTD SVG 20010904//EN"
 "http://www.w3.org/TR/2001/REC-SVG-20010904/DTD/svg10.dtd">
<svg version="1.0" xmlns="http://www.w3.org/2000/svg"
 width="178.000000pt" height="178.000000pt" viewBox="0 0 178.000000 178.000000"
 preserveAspectRatio="xMidYMid meet">
<metadata>
Created by potrace 1.14, written by Peter Selinger 2001-2017
</metadata>
<g transform="translate(0.000000,178.000000) scale(0.100000,-0.100000)"
fill="#000000" stroke="none">
<path d="M858 1723 c-10 -3 -18 -9 -18 -15 0 -6 -3 -8 -6 -5 -4 4 -19 -2 -33
-11 -14 -10 -38 -23 -53 -30 -16 -6 -28 -16 -28 -22 0 -6 -4 -8 -10 -5 -5 3
-10 1 -10 -6 0 -7 -3 -9 -7 -6 -3 4 -12 -1 -20 -11 -8 -9 -11 -11 -8 -4 6 11
3 11 -14 0 -12 -7 -21 -16 -21 -20 0 -5 -7 -8 -16 -8 -8 0 -22 -6 -29 -12 -25
-23 -41 -33 -53 -36 -7 -1 -32 -14 -55 -29 -23 -15 -46 -27 -50 -28 -4 0 -11
-6 -16 -13 -5 -8 -10 -13 -12 -12 -9 4 -59 -24 -59 -32 0 -5 -4 -6 -10 -3 -5
3 -10 1 -10 -4 0 -6 -3 -10 -7 -9 -9 3 -85 -42 -94 -55 -3 -5 -9 -8 -13 -8
-18 3 -29 0 -23 -5 3 -4 -4 -15 -16 -24 -22 -18 -22 -18 -23 -417 -1 -287 2
-406 11 -428 7 -19 27 -38 51 -50 21 -11 41 -23 44 -26 8 -10 75 -43 83 -41 4
1 7 -3 7 -8 0 -6 7 -10 15 -10 8 0 15 -4 15 -9 0 -9 29 -23 40 -19 3 1 15 -6
27 -17 12 -10 44 -31 70 -45 84 -47 98 -55 116 -69 9 -8 17 -11 17 -8 0 4 9
-2 20 -13 12 -12 25 -18 30 -15 6 4 10 2 10 -2 0 -5 17 -17 38 -28 20 -11 52
-29 71 -42 19 -12 38 -20 43 -17 4 3 8 0 8 -6 0 -6 12 -10 28 -8 33 4 122 48
122 60 0 5 4 7 8 4 5 -3 19 4 30 15 12 11 22 17 22 13 0 -4 8 0 18 9 10 10 22
14 25 11 4 -4 9 1 13 10 3 9 9 14 14 11 4 -2 18 6 31 18 13 12 25 21 26 20 6
-5 73 31 73 39 0 5 5 6 10 3 6 -3 10 -1 10 5 0 6 4 9 9 5 6 -3 14 3 20 12 6
10 11 14 11 10 0 -5 13 1 29 12 16 12 37 24 47 28 35 14 213 124 220 135 5 7
2 8 -7 3 -11 -7 -11 -5 1 10 13 15 15 77 16 409 1 364 0 394 -18 429 -10 21
-23 35 -28 32 -6 -4 -10 -1 -10 5 0 6 -11 15 -25 20 -13 5 -42 21 -65 35 -22
14 -40 22 -40 18 0 -5 -4 -3 -8 2 -4 6 -29 24 -57 40 -27 17 -57 34 -66 40
-10 5 -41 23 -70 38 -30 16 -62 36 -71 44 -10 9 -18 12 -18 7 0 -5 -4 -4 -8 2
-8 12 -68 45 -78 43 -4 0 -10 3 -13 8 -7 11 -97 66 -126 77 -25 10 -55 14 -77
9z"/>
</g>
</svg>
